<?xml version="1.0" standalone="no"?>
<!DOCTYPE svg PUBLIC "-//W3C//DTD SVG 20010904//EN"
 "http://www.w3.org/TR/2001/REC-SVG-20010904/DTD/svg10.dtd">
<svg version="1.0" xmlns="http://www.w3.org/2000/svg"
 width="718.000000pt" height="936.000000pt" viewBox="0 0 718.000000 936.000000"
 preserveAspectRatio="xMidYMid meet">

<g transform="translate(0.000000,936.000000) scale(0.100000,-0.100000)"
fill="#000000" stroke="none">
<path d="M1714 6919 c-284 -47 -496 -226 -555 -469 -20 -81 -17 -271 5 -345
67 -223 222 -365 475 -433 86 -23 115 -25 271 -25 157 0 185 2 272 26 135 36
247 96 329 177 75 74 114 143 135 239 23 111 39 101 -161 101 l-175 0 0 -25
c0 -70 -63 -140 -157 -175 -107 -40 -290 -48 -421 -19 -110 24 -199 96 -229
183 -23 68 -23 195 1 263 48 142 204 212 445 200 122 -5 216 -31 279 -77 52
-37 72 -68 79 -120 l6 -40 174 0 174 0 -7 58 c-18 153 -109 285 -256 374 -136
83 -285 118 -493 117 -77 -1 -163 -5 -191 -10z"/>
<path d="M2842 6288 l3 -623 168 -3 167 -2 0 625 0 625 -170 0 -170 0 2 -622z"/>
<path d="M3320 6760 l0 -150 230 0 230 0 0 -475 0 -475 168 2 167 3 3 473 2
472 230 0 230 0 0 150 0 150 -630 0 -630 0 0 -150z"/>
<path d="M4600 6882 c0 -22 64 -114 265 -382 l265 -353 0 -244 0 -243 165 0
165 0 0 241 0 242 265 354 c206 275 265 361 265 384 l0 29 -177 0 -178 -1
-165 -229 c-91 -126 -169 -228 -175 -227 -5 2 -84 106 -175 230 l-164 227
-178 0 -178 0 0 -28z"/>
<path d="M2685 5280 c-199 -40 -344 -168 -391 -345 -18 -65 -18 -206 0 -271
60 -225 261 -354 551 -354 290 0 493 128 550 345 19 76 19 214 0 290 -42 162
-180 286 -366 330 -69 16 -273 19 -344 5z m340 -219 c102 -45 155 -123 163
-237 14 -214 -126 -328 -381 -311 -103 6 -182 35 -229 84 -50 53 -68 94 -75
172 -12 147 52 252 182 297 61 22 84 24 180 21 87 -3 121 -8 160 -26z"/>
<path d="M1270 5180 l0 -100 185 0 185 0 0 -380 0 -380 110 0 110 0 0 380 0
380 185 0 185 0 0 100 0 100 -480 0 -480 0 0 -100z"/>
<path d="M3587 5273 c-11 -11 -8 -532 4 -603 14 -88 48 -159 105 -221 92 -97
201 -139 364 -139 200 0 345 75 423 219 48 88 57 157 57 469 l0 282 -110 0
-110 0 0 -289 c0 -315 -5 -348 -58 -404 -53 -56 -97 -72 -202 -72 -110 0 -157
18 -208 81 -47 57 -52 97 -52 403 l0 281 -103 0 c-57 0 -107 -3 -110 -7z"/>
<path d="M4750 4800 l0 -481 108 3 107 3 3 173 2 173 98 -3 97 -3 150 -172
150 -173 123 0 c120 0 122 0 122 23 0 14 -46 74 -134 172 -131 147 -140 164
-90 165 11 0 49 14 83 31 109 54 160 154 148 285 -8 80 -26 122 -76 177 -48
52 -111 82 -202 96 -35 6 -205 11 -376 11 l-313 0 0 -480z m697 260 c70 -42
66 -156 -7 -192 -30 -16 -65 -18 -252 -18 l-218 0 0 115 0 115 223 0 c202 0
225 -2 254 -20z"/>
<path d="M1670 3898 c0 -32 52 -236 81 -320 185 -539 623 -975 1168 -1163 184
-63 320 -86 543 -92 227 -6 336 4 516 48 598 147 1082 575 1306 1156 39 101
81 254 92 333 l7 50 -97 0 -96 0 -6 -27 c-61 -275 -161 -501 -305 -692 -262
-349 -629 -576 -1062 -658 -143 -27 -456 -25 -603 5 -537 108 -978 449 -1210
937 -52 108 -108 275 -125 368 l-12 67 -99 0 c-72 0 -98 -3 -98 -12z"/>
</g>
</svg>
